<svg xmlns="http://www.w3.org/2000/svg" viewBox="0 0 468 263" width="468" height="263">
	<defs>
		<clipPath clipPathUnits="userSpaceOnUse" id="cp1">
			<path d="M0 0L468 0L468 263L0 263Z" />
		</clipPath>
	</defs>
	<style>
		tspan { white-space:pre }
		.shp0 { fill: #000000 } 
	</style>
	<g id="Page 1" clip-path="url(#cp1)">
		<path id="Path 1" fill-rule="evenodd" class="shp0" d="M0 1.17L261.83 1.17L261.83 263L0 263L0 1.17ZM3.04 259.96L258.79 259.96L258.79 4.22L3.04 4.22L3.04 259.96ZM186.9 163.49L197.71 163.49L197.71 173.97C197.71 176.85 196.67 179.28 194.59 181.25C192.5 183.22 189.94 184.21 186.9 184.21C183.86 184.21 181.25 183.22 179.09 181.25C176.93 179.28 175.84 176.85 175.84 173.97C175.84 171.09 176.93 168.61 179.09 166.56C181.25 164.51 183.86 163.49 186.9 163.49Z" />
		<path id="Path 2" fill-rule="evenodd" class="shp0" d="M0 0.41L262 0.41L262 262.41L0 262.41L0 0.41ZM146.9 125.36C149.01 123.35 151.54 122.33 154.49 122.29L154.59 122.29C160.62 122.29 165.52 117.64 165.52 111.92C165.52 106.24 160.69 101.63 154.71 101.57L154.49 101.57C145.45 101.61 137.75 104.69 131.4 110.78C124.99 116.93 121.79 124.25 121.79 132.75L121.79 194.89C121.84 200.57 126.71 205.16 132.72 205.16C138.73 205.16 143.6 200.57 143.66 194.89L143.66 132.75C143.66 129.87 144.73 127.4 146.9 125.36ZM111.45 132.3C111.45 123.8 108.25 116.48 101.84 110.33C95.43 104.18 87.66 101.11 78.53 101.11L67.72 101.11L67.72 73.07L67.71 73.07L67.72 72.95C67.72 67.23 62.82 62.59 56.78 62.59C50.75 62.59 45.76 67.23 45.85 72.95L45.85 73.07L45.85 73.07L45.85 173.74C45.85 182.24 49.05 189.52 55.46 195.59C61.87 201.66 69.56 204.7 78.53 204.7C87.66 204.7 95.43 201.66 101.84 195.59C108.25 189.52 111.45 182.24 111.45 173.74L111.45 132.3ZM219.58 132.53C219.58 124.03 216.37 116.74 209.97 110.67C203.56 104.6 195.87 101.57 186.9 101.57L186.66 101.57C180.68 101.63 175.84 106.24 175.84 111.92C175.84 117.64 180.74 122.29 186.77 122.29L186.87 122.29C189.82 122.33 192.36 123.35 194.47 125.36C196.63 127.4 197.71 129.87 197.71 132.75L197.71 143L186.9 143C177.93 143 170.2 146.04 163.71 152.11C157.22 158.18 153.97 165.46 153.97 173.96C153.97 182.47 157.22 189.75 163.71 195.82C170.2 201.89 177.93 204.93 186.9 204.93C195.87 204.93 203.56 201.89 209.97 195.82C216.37 189.75 219.58 182.47 219.58 173.96L219.58 132.53ZM86.34 124.9C88.5 126.95 89.59 129.41 89.59 132.3L89.59 173.74C89.59 176.62 88.5 179.05 86.34 181.02C84.18 182.99 81.57 183.98 78.53 183.98C75.48 183.98 72.92 182.99 70.84 181.02C68.76 179.05 67.72 176.62 67.72 173.74L67.72 121.83L78.53 121.83C81.57 121.83 84.18 122.85 86.34 124.9ZM326.88 187.93C327.06 196.04 321.87 204.24 310.7 204.24L299.91 204.24L299.91 172.35L310.7 172.35C321.5 172.35 326.7 180.1 326.88 187.93ZM302.37 174.67L302.37 201.87L310.7 201.87C320.18 201.87 324.55 194.77 324.42 187.93C324.28 181.28 319.91 174.67 310.7 174.67L302.37 174.67ZM332.99 172.35L335.4 172.35L335.4 204.24L332.99 204.24L332.99 172.35ZM367.52 178.23C364.75 175.49 360.87 174.13 357.27 174.13C347.93 174.13 343.15 180.96 343.19 188.34C343.19 195.86 347.98 202.33 357.27 202.33C360.69 202.33 364.24 201.15 366.98 198.64L366.98 189.71L355.86 189.71L355.86 187.57L369.3 187.57L369.3 199.51C365.98 202.83 362.01 204.65 357.27 204.65C346.43 204.65 340.83 197.09 340.83 188.39C340.78 178.41 347.57 171.9 357.27 171.9C361.46 171.9 365.7 173.49 368.94 176.68L367.52 178.23ZM376 172.35L378.42 172.35L378.42 204.24L376 204.24L376 172.35ZM395.96 174.58L384.43 174.58L384.43 172.39L409.95 172.39L409.95 174.58L398.42 174.58L398.42 204.24L395.96 204.24L395.96 174.58ZM439.98 204.24L436.47 196.41L417.43 196.41L413.96 204.24L411.32 204.24L425.63 172.35L428.31 172.35L442.62 204.24L439.98 204.24ZM435.51 194.13L426.95 174.72L418.38 194.13L435.51 194.13ZM449.64 172.35L449.64 201.92L467.59 201.92L467.59 204.24L447.18 204.24L447.18 172.35L449.64 172.35Z" />
		<path id="Path 3" fill-rule="evenodd" class="shp0" d="M304.53 136.81L304.53 157.12L299.99 157.12L299.99 98.37L325.76 98.37C351.27 98.37 351.27 136.81 325.76 136.81L304.53 136.81ZM304.53 102.57L304.53 132.69L325.76 132.69C345.31 132.69 345.31 102.57 325.76 102.57L304.53 102.57ZM411.57 127.83C411.5 143.26 401.68 158.13 381.95 158.13C362.24 158.13 352.33 143.19 352.33 127.66C352.33 112.76 361.12 99.04 378.79 97.59L375.9 102.23C363.08 104.8 356.72 115.66 356.79 127.75C356.86 141 365.26 153.93 381.95 153.93C398.75 153.93 407.22 141 407.22 127.75C407.22 115.64 400.57 104.41 387.22 102.09L390.02 98.35C404.45 101.74 411.66 114.29 411.57 127.83ZM378.7 103.67L378.7 103.33L384.99 93.26L390.45 93.26L390.45 93.35L382.73 103.67L378.7 103.67ZM462.07 109.7C457.79 102.82 450.9 101.81 444.27 101.73C437.39 101.73 426.48 104.24 426.48 113.65C426.48 121.12 434.54 122.88 444.44 124.72C455.77 126.9 467.52 128.91 467.52 141.59C467.44 154.85 454.09 158.04 444.27 158.04C435.13 158.04 424.72 154.26 420.19 145.29L424.22 143.27C427.83 150.4 437.06 153.93 444.27 153.93C451.49 153.93 462.99 151.91 462.99 141.51C463.07 132.7 453.34 130.76 443.69 128.91C432.95 126.82 421.95 124.64 421.95 113.82C421.7 101.39 434.63 97.53 444.27 97.53C452.67 97.53 459.97 98.87 465.76 107.52L462.07 109.7ZM311.8 78.51L304.24 78.51L303 81.23L300.05 81.23L306.53 66.78L309.5 66.78L315.99 81.23L313.02 81.23L311.8 78.51ZM308.02 69.81L305.33 75.97L310.7 75.97L308.02 69.81ZM339.71 70.31C338.74 69.38 337.29 68.86 336.03 68.86C332.94 68.86 331.05 71.22 331.05 74.19C331.05 76.57 332.44 79.02 336.03 79.02C337.17 79.02 338.16 78.77 339.29 77.87L339.29 75.3L335.6 75.3L335.6 72.87L341.79 72.87L341.79 78.96C340.37 80.59 338.57 81.56 336.03 81.56C330.6 81.56 328.39 77.99 328.39 74.19C328.39 70.12 330.93 66.36 336.03 66.36C337.97 66.36 339.91 67.11 341.4 68.57L339.71 70.31ZM361.61 62.34L362.99 62.34L366.05 65.19L366.05 65.31L363.49 65.31L362.29 64.09L361.11 65.31L358.55 65.31L358.55 65.19L361.61 62.34ZM367.2 81.23L356.38 81.23L356.38 66.78L367.2 66.78L367.2 69.42L359.09 69.42L359.09 72.74L366.91 72.74L366.91 75.28L359.09 75.28L359.09 78.55L367.2 78.55L367.2 81.23ZM391.54 66.75L394.27 66.75L394.27 81.23L392.57 81.23L392.57 81.25L384.97 71.48L384.97 81.23L382.25 81.23L382.25 66.78L384.46 66.78L391.54 75.74L391.54 66.75ZM421.91 79.41C420.42 80.88 418.5 81.56 416.42 81.56C411.05 81.56 408.78 77.87 408.76 74.11C408.73 70.33 411.19 66.48 416.42 66.48C418.38 66.48 420.24 67.23 421.72 68.7L419.91 70.45C418.96 69.52 417.68 69.09 416.42 69.09C412.93 69.09 411.42 71.69 411.44 74.11C411.46 76.5 412.84 79 416.42 79C417.68 79 419.1 78.48 420.05 77.53L421.91 79.41ZM435.88 66.78L438.58 66.78L438.58 81.23L435.88 81.23L435.88 66.78Z" />
		<path id="Path 4" fill-rule="evenodd" class="shp0" d="M463.81 78.51L456.25 78.51L455.01 81.23L452.06 81.23L458.54 66.78L461.52 66.78L468 81.23L465.03 81.23L463.81 78.51ZM460.03 69.81L457.34 75.97L462.71 75.97L460.03 69.81Z" />
	</g>
</svg>